<svg xmlns="http://www.w3.org/2000/svg" width="1400" height="900" viewBox="0 0 1400 900" fill="none">
<rect width="1400" height="900" rx="48" fill="#07111F"/><circle cx="700" cy="440" r="150" fill="#102A3B" stroke="#2E596C" stroke-width="2"/><circle cx="700" cy="440" r="108" fill="#0B1D2B"/><text x="620" y="425" fill="#F7FAFC" font-family="Arial" font-size="32" font-weight="700">Jharkhandi</text><text x="603" y="465" fill="#8FA7B9" font-family="Arial" font-size="18">shared decision network</text>
<g stroke="#2C6473" stroke-width="4" stroke-dasharray="9 10"><path d="M560 390 330 255"/><path d="M840 390 1070 255"/><path d="M560 505 330 650"/><path d="M840 505 1070 650"/></g>
<g font-family="Arial"><g><rect x="145" y="160" width="360" height="210" rx="28" fill="#0F2534" stroke="#1F6F73"/><circle cx="215" cy="235" r="35" fill="#117E73"/><text x="202" y="246" fill="white" font-size="31" font-weight="700">C</text><text x="270" y="225" fill="#F4F8FA" font-size="28" font-weight="700">Citizens</text><text x="270" y="258" fill="#8FA8B7" font-size="16">Ground truth + evidence</text><text x="190" y="315" fill="#B9CBD4" font-size="17">Report, track, validate outcomes</text></g>
<g><rect x="895" y="160" width="360" height="210" rx="28" fill="#10243A" stroke="#315A90"/><circle cx="965" cy="235" r="35" fill="#376BC4"/><text x="951" y="246" fill="white" font-size="31" font-weight="700">U</text><text x="1020" y="225" fill="#F4F8FA" font-size="28" font-weight="700">Universities</text><text x="1020" y="258" fill="#8FA8B7" font-size="16">Research + multidisciplinary teams</text><text x="940" y="315" fill="#B9CBD4" font-size="17">Prototype, test and learn</text></g>
<g><rect x="145" y="545" width="360" height="210" rx="28" fill="#18223B" stroke="#5C5EA1"/><circle cx="215" cy="620" r="35" fill="#6667B0"/><text x="204" y="631" fill="white" font-size="31" font-weight="700">I</text><text x="270" y="610" fill="#F4F8FA" font-size="28" font-weight="700">Industry</text><text x="270" y="643" fill="#8FA8B7" font-size="16">Funding + deployment capacity</text><text x="190" y="700" fill="#B9CBD4" font-size="17">Mentor, resource and transfer</text></g>
<g><rect x="895" y="545" width="360" height="210" rx="28" fill="#2B2215" stroke="#8A6A29"/><circle cx="965" cy="620" r="35" fill="#B3832B"/><text x="951" y="631" fill="white" font-size="31" font-weight="700">G</text><text x="1020" y="610" fill="#F4F8FA" font-size="28" font-weight="700">Government</text><text x="1020" y="643" fill="#B4A488" font-size="16">Validate + route + verify</text><text x="940" y="700" fill="#D8C7A6" font-size="17">Decide with auditable evidence</text></g></g>
</svg>
